<mxfile host="app.diagrams.net" modified="2022-11-16T03:00:33.713Z" agent="5.0 (Windows NT 10.0; Win64; x64) AppleWebKit/537.36 (KHTML, like Gecko) Chrome/107.0.0.0 Safari/537.36 Edg/107.0.1418.42" etag="mM8qE3g3VEC1Jl72ZoTC" version="20.5.3" type="github">
  <diagram id="gfXYl0eTuPa3sxULBo49" name="第 1 页">
    <mxGraphModel dx="731" dy="428" grid="0" gridSize="10" guides="1" tooltips="1" connect="1" arrows="1" fold="1" page="1" pageScale="1" pageWidth="827" pageHeight="1169" math="0" shadow="0">
      <root>
        <mxCell id="0" />
        <mxCell id="1" parent="0" />
        <mxCell id="CbyrRiCxyE39QjrKgwwf-42" value="" style="rounded=0;whiteSpace=wrap;html=1;" vertex="1" parent="1">
          <mxGeometry x="89" y="102" width="552" height="391" as="geometry" />
        </mxCell>
        <mxCell id="CbyrRiCxyE39QjrKgwwf-3" value="获取订单信息" style="rounded=1;whiteSpace=wrap;html=1;" vertex="1" parent="1">
          <mxGeometry x="275" y="282" width="78" height="54" as="geometry" />
        </mxCell>
        <mxCell id="CbyrRiCxyE39QjrKgwwf-4" value="" style="shape=waypoint;sketch=0;fillStyle=solid;size=6;pointerEvents=1;points=[];fillColor=none;resizable=0;rotatable=0;perimeter=centerPerimeter;snapToPoint=1;strokeWidth=6;" vertex="1" parent="1">
          <mxGeometry x="169" y="289" width="40" height="40" as="geometry" />
        </mxCell>
        <mxCell id="CbyrRiCxyE39QjrKgwwf-5" value="" style="endArrow=classic;html=1;rounded=0;exitX=0.997;exitY=0.504;exitDx=0;exitDy=0;exitPerimeter=0;entryX=0;entryY=0.5;entryDx=0;entryDy=0;" edge="1" parent="1" source="CbyrRiCxyE39QjrKgwwf-4" target="CbyrRiCxyE39QjrKgwwf-3">
          <mxGeometry width="50" height="50" relative="1" as="geometry">
            <mxPoint x="464" y="390" as="sourcePoint" />
            <mxPoint x="514" y="340" as="targetPoint" />
          </mxGeometry>
        </mxCell>
        <mxCell id="CbyrRiCxyE39QjrKgwwf-6" value="开始制作" style="text;html=1;strokeColor=none;fillColor=none;align=center;verticalAlign=middle;whiteSpace=wrap;rounded=0;strokeWidth=6;" vertex="1" parent="1">
          <mxGeometry x="202" y="289" width="60" height="30" as="geometry" />
        </mxCell>
        <mxCell id="CbyrRiCxyE39QjrKgwwf-7" value="制作信息提交" style="rounded=1;whiteSpace=wrap;html=1;" vertex="1" parent="1">
          <mxGeometry x="405" y="282" width="78" height="54" as="geometry" />
        </mxCell>
        <mxCell id="CbyrRiCxyE39QjrKgwwf-8" value="" style="endArrow=classic;html=1;rounded=0;exitX=1;exitY=0.5;exitDx=0;exitDy=0;entryX=0;entryY=0.5;entryDx=0;entryDy=0;" edge="1" parent="1" source="CbyrRiCxyE39QjrKgwwf-3" target="CbyrRiCxyE39QjrKgwwf-7">
          <mxGeometry width="50" height="50" relative="1" as="geometry">
            <mxPoint x="505" y="389" as="sourcePoint" />
            <mxPoint x="555" y="339" as="targetPoint" />
          </mxGeometry>
        </mxCell>
        <mxCell id="CbyrRiCxyE39QjrKgwwf-17" value="" style="endArrow=classic;html=1;rounded=0;entryX=0.5;entryY=0;entryDx=0;entryDy=0;" edge="1" parent="1" source="CbyrRiCxyE39QjrKgwwf-4" target="CbyrRiCxyE39QjrKgwwf-18">
          <mxGeometry width="50" height="50" relative="1" as="geometry">
            <mxPoint x="505" y="443" as="sourcePoint" />
            <mxPoint x="251" y="368" as="targetPoint" />
          </mxGeometry>
        </mxCell>
        <mxCell id="CbyrRiCxyE39QjrKgwwf-18" value="获取菜品信息" style="rounded=1;whiteSpace=wrap;html=1;" vertex="1" parent="1">
          <mxGeometry x="227" y="374" width="78" height="54" as="geometry" />
        </mxCell>
        <mxCell id="CbyrRiCxyE39QjrKgwwf-27" value="更新菜品信息" style="rounded=1;whiteSpace=wrap;html=1;" vertex="1" parent="1">
          <mxGeometry x="104" y="374" width="78" height="54" as="geometry" />
        </mxCell>
        <mxCell id="CbyrRiCxyE39QjrKgwwf-28" value="" style="endArrow=classic;html=1;rounded=0;entryX=0.5;entryY=0;entryDx=0;entryDy=0;" edge="1" parent="1" source="CbyrRiCxyE39QjrKgwwf-4" target="CbyrRiCxyE39QjrKgwwf-27">
          <mxGeometry width="50" height="50" relative="1" as="geometry">
            <mxPoint x="451" y="386" as="sourcePoint" />
            <mxPoint x="501" y="336" as="targetPoint" />
          </mxGeometry>
        </mxCell>
        <mxCell id="CbyrRiCxyE39QjrKgwwf-29" value="" style="endArrow=classic;html=1;rounded=0;exitX=1;exitY=0.5;exitDx=0;exitDy=0;entryX=0;entryY=0.5;entryDx=0;entryDy=0;" edge="1" parent="1" source="CbyrRiCxyE39QjrKgwwf-27" target="CbyrRiCxyE39QjrKgwwf-18">
          <mxGeometry width="50" height="50" relative="1" as="geometry">
            <mxPoint x="451" y="386" as="sourcePoint" />
            <mxPoint x="501" y="336" as="targetPoint" />
          </mxGeometry>
        </mxCell>
        <mxCell id="CbyrRiCxyE39QjrKgwwf-31" value="" style="endArrow=classic;html=1;rounded=0;exitX=1;exitY=0.5;exitDx=0;exitDy=0;entryX=0;entryY=0.5;entryDx=0;entryDy=0;" edge="1" parent="1" source="CbyrRiCxyE39QjrKgwwf-7" target="CbyrRiCxyE39QjrKgwwf-34">
          <mxGeometry width="50" height="50" relative="1" as="geometry">
            <mxPoint x="451" y="393" as="sourcePoint" />
            <mxPoint x="536" y="271" as="targetPoint" />
          </mxGeometry>
        </mxCell>
        <mxCell id="CbyrRiCxyE39QjrKgwwf-32" value="" style="endArrow=classic;html=1;rounded=0;entryX=1;entryY=0.5;entryDx=0;entryDy=0;exitX=0;exitY=0.5;exitDx=0;exitDy=0;" edge="1" parent="1" source="CbyrRiCxyE39QjrKgwwf-33" target="CbyrRiCxyE39QjrKgwwf-7">
          <mxGeometry width="50" height="50" relative="1" as="geometry">
            <mxPoint x="530" y="344" as="sourcePoint" />
            <mxPoint x="501" y="343" as="targetPoint" />
          </mxGeometry>
        </mxCell>
        <mxCell id="CbyrRiCxyE39QjrKgwwf-33" value="获取库存信息" style="rounded=1;whiteSpace=wrap;html=1;" vertex="1" parent="1">
          <mxGeometry x="535" y="326" width="78" height="54" as="geometry" />
        </mxCell>
        <mxCell id="CbyrRiCxyE39QjrKgwwf-34" value="更新库存信息" style="rounded=1;whiteSpace=wrap;html=1;" vertex="1" parent="1">
          <mxGeometry x="535" y="235" width="78" height="54" as="geometry" />
        </mxCell>
        <mxCell id="CbyrRiCxyE39QjrKgwwf-35" value="" style="endArrow=classic;html=1;rounded=0;exitX=0.5;exitY=1;exitDx=0;exitDy=0;" edge="1" parent="1" source="CbyrRiCxyE39QjrKgwwf-34" target="CbyrRiCxyE39QjrKgwwf-33">
          <mxGeometry width="50" height="50" relative="1" as="geometry">
            <mxPoint x="451" y="393" as="sourcePoint" />
            <mxPoint x="501" y="343" as="targetPoint" />
          </mxGeometry>
        </mxCell>
        <mxCell id="CbyrRiCxyE39QjrKgwwf-36" value="" style="endArrow=classic;html=1;rounded=0;exitX=0.5;exitY=0;exitDx=0;exitDy=0;" edge="1" parent="1" source="CbyrRiCxyE39QjrKgwwf-3">
          <mxGeometry width="50" height="50" relative="1" as="geometry">
            <mxPoint x="451" y="393" as="sourcePoint" />
            <mxPoint x="314" y="242" as="targetPoint" />
          </mxGeometry>
        </mxCell>
        <mxCell id="CbyrRiCxyE39QjrKgwwf-37" value="获取账单信息" style="rounded=1;whiteSpace=wrap;html=1;" vertex="1" parent="1">
          <mxGeometry x="275" y="190" width="78" height="54" as="geometry" />
        </mxCell>
        <mxCell id="CbyrRiCxyE39QjrKgwwf-38" value="" style="endArrow=classic;html=1;rounded=0;exitX=0.448;exitY=0.468;exitDx=0;exitDy=0;exitPerimeter=0;entryX=0.5;entryY=1;entryDx=0;entryDy=0;" edge="1" parent="1" source="CbyrRiCxyE39QjrKgwwf-4" target="CbyrRiCxyE39QjrKgwwf-39">
          <mxGeometry width="50" height="50" relative="1" as="geometry">
            <mxPoint x="451" y="393" as="sourcePoint" />
            <mxPoint x="191" y="258" as="targetPoint" />
          </mxGeometry>
        </mxCell>
        <mxCell id="CbyrRiCxyE39QjrKgwwf-39" value="获取反馈信息" style="rounded=1;whiteSpace=wrap;html=1;" vertex="1" parent="1">
          <mxGeometry x="150" y="214" width="78" height="54" as="geometry" />
        </mxCell>
        <mxCell id="CbyrRiCxyE39QjrKgwwf-40" value="" style="endArrow=classic;html=1;rounded=0;exitX=0.5;exitY=0;exitDx=0;exitDy=0;entryX=0.5;entryY=1;entryDx=0;entryDy=0;" edge="1" parent="1" source="CbyrRiCxyE39QjrKgwwf-39" target="CbyrRiCxyE39QjrKgwwf-41">
          <mxGeometry width="50" height="50" relative="1" as="geometry">
            <mxPoint x="351" y="325" as="sourcePoint" />
            <mxPoint x="189" y="156" as="targetPoint" />
          </mxGeometry>
        </mxCell>
        <mxCell id="CbyrRiCxyE39QjrKgwwf-41" value="处理反馈信息" style="rounded=1;whiteSpace=wrap;html=1;" vertex="1" parent="1">
          <mxGeometry x="150" y="136" width="78" height="54" as="geometry" />
        </mxCell>
      </root>
    </mxGraphModel>
  </diagram>
</mxfile>
